<svg xmlns="http://www.w3.org/2000/svg" viewBox="0 0 96 96" aria-hidden="true">
  <circle cx="28" cy="73" r="13" fill="#817a84"/>
  <circle cx="28" cy="73" r="8" fill="#ffdc6b"/>
  <circle cx="72" cy="73" r="13" fill="#817a84"/>
  <circle cx="72" cy="73" r="8" fill="#ffdc6b"/>
  <path d="M23 69h48c10 0 17 5 18 14H14c0-8 3-14 9-14z" fill="#f65662"/>
  <path d="M31 52h20c8 0 13 6 13 14H25c0-8 2-14 6-14z" fill="#f65662"/>
  <path d="M58 50h17c5 0 9 4 9 9v5H60z" fill="#f65662"/>
  <path d="M59 36c11 1 18 9 21 23H66c-2-7-7-12-15-14z" fill="#ffdc6b"/>
  <path d="M50 44c7 0 12 4 14 11l-27-3c1-5 6-8 13-8z" fill="#e59a57"/>
  <path d="M52 23c10 0 17 8 17 17 0 6-4 11-10 13l-6-15-13-5c2-6 7-10 12-10z" fill="#ffdc6b"/>
  <circle cx="54" cy="27" r="10" fill="#f65662"/>
  <path d="M63 25h18a4 4 0 0 1 0 8H63a4 4 0 0 1 0-8z" fill="#ffe889"/>
  <path d="M19 45h20v22H19z" fill="#e59a57"/>
  <path d="M13 50h6v13h-6a7 7 0 0 1 0-13z" fill="#21c7cf"/>
  <path d="M40 57h32a6 6 0 0 1 0 12H40a6 6 0 0 1 0-12z" fill="#817a84"/>
  <path d="M76 46h11a8 8 0 0 1 0 16H76a8 8 0 0 1 0-16z" fill="#21c7cf"/>
  <path d="M8 22h22a10 10 0 0 1 10 10v11l-8-5H8z" fill="#f65662"/>
  <path d="M15 30h18v8H15z" fill="#e59a57"/>
  <path d="M15 36c5-5 10 5 18 0" fill="none" stroke="#76d8a8" stroke-linecap="round" stroke-width="5"/>
</svg>
